HIERARCHY
ROOT hip
{
	OFFSET 0.000000 0.000000 0.000000
	CHANNELS 6 Xposition Yposition Zposition Xrotation Zrotation Yrotation 
	JOINT abdomen
	{
		OFFSET 0.000000 3.422050 0.000000
		CHANNELS 3 Xrotation Zrotation Yrotation 
		JOINT chest
		{
			OFFSET 0.000000 8.486693 -0.6844110
			CHANNELS 3 Xrotation Zrotation Yrotation 
			JOINT neck
			{
				OFFSET 0.000000 10.26616 -0.2737640
				CHANNELS 3 Xrotation Zrotation Yrotation 
				JOINT head
				{
					OFFSET 0.000000 3.148285 0.000000
					CHANNELS 3 Xrotation Zrotation Yrotation 
					End Site
					{
						OFFSET 0.000000 3.148289 0.000000
					}
				}
			}
			JOINT lCollar
			{
				OFFSET 3.422053 6.707223 -0.8212930
				CHANNELS 3 Yrotation Zrotation Xrotation 
				JOINT lShldr
				{
					OFFSET 3.285171 0.000000 0.000000
					CHANNELS 3 Zrotation Yrotation Xrotation 
					JOINT lForeArm
					{
						OFFSET 10.12928 0.000000 0.000000
						CHANNELS 3 Yrotation Zrotation Xrotation 
						JOINT lHand
						{
							OFFSET 8.486692 0.000000 0.000000
							CHANNELS 3 Zrotation Yrotation Xrotation 
							End Site
							{
								OFFSET 4.106464 0.000000 0.000000
							}
						}
					}
				}
			}
			JOINT rCollar
			{
				OFFSET -3.558935 6.707223 -0.8212930
				CHANNELS 3 Yrotation Zrotation Xrotation 
				JOINT rShldr
				{
					OFFSET -3.148289 0.000000 0.000000
					CHANNELS 3 Zrotation Yrotation Xrotation 
					JOINT rForeArm
					{
						OFFSET -10.26616 0.000000 0.000000
						CHANNELS 3 Yrotation Zrotation Xrotation 
						JOINT rHand
						{
							OFFSET -8.349810 0.000000 0.000000
							CHANNELS 3 Zrotation Yrotation Xrotation 
							End Site
							{
								OFFSET -4.106464 0.000000 0.000000
							}
						}
					}
				}
			}
		}
	}
	JOINT lThigh
	{
		OFFSET 5.338403 -1.642589 1.368821
		CHANNELS 3 Xrotation Zrotation Yrotation 
		JOINT lShin
		{
			OFFSET -2.053232 -20.12167 0.000000
			CHANNELS 3 Xrotation Zrotation Yrotation 
			JOINT lFoot
			{
				OFFSET 0.000000 -19.30038 -1.231939
				CHANNELS 3 Xrotation Yrotation Zrotation 
				End Site
				{
					OFFSET 0.000000 -2.463878 4.653993
				}
			}
		}
	}
	JOINT rThigh
	{
		OFFSET -5.338403 -1.642589 1.368821
		CHANNELS 3 Xrotation Zrotation Yrotation 
		JOINT rShin
		{
			OFFSET 2.053232 -20.12167 0.000000
			CHANNELS 3 Xrotation Zrotation Yrotation 
			JOINT rFoot
			{
				OFFSET 0.000000 -19.30038 -1.231939
				CHANNELS 3 Xrotation Yrotation Zrotation 
				End Site
				{
					OFFSET 0.000000 -2.463878 4.653993
				}
			}
		}
	}
}
MOTION
Frames:	10
Frame Time:	0.1000000
0.000000 9.071484 0.4042556 45.27184 -2.921109 -2.758825 68.91183 6.174303 30.84693 -15.17002 -16.43789 11.05118 -10.00000 -0.6872241 12.83260 -19.00000 -13.70925 5.286344 -29.07477 10.08874 -1.000000 -53.75801 -23.10485 -9.675006 -86.41030 -0.2863434 11.71366 76.33481 8.000000 10.45815 -10.00000 -6.501239 -2.423850 -26.43769 -33.74430 -49.33773 89.25056 1.782048 14.72308 -3.744493 -0.0009265359 -11.39648 21.39205 3.446819 -9.434676 37.56833 0.000000 0.000000 59.65286 0.000000 -3.000000 22.64503 2.074774 0.000000 30.25768 0.000000 0.000000 62.00000 0.000000 0.000000 
0.000000 7.949080 0.3480407 51.49165 -2.514906 -2.375189 50.04958 5.576036 27.13223 -6.377617 -14.59321 9.754937 -10.00000 -1.508850 15.02360 -19.00000 -10.97050 5.628688 -28.92532 10.91075 -1.000000 -45.52269 -16.10207 -17.25574 -87.10678 -0.6286877 11.37131 71.95280 8.000000 11.00590 -10.00000 -7.567202 -2.264064 -27.06190 -43.77933 -50.53426 86.39986 2.015762 14.16217 -4.634588 -0.0009265359 -9.479349 18.55637 3.446819 -7.566479 33.51840 0.000000 0.000000 59.65286 0.000000 -3.000000 19.35700 1.925318 0.000000 29.57290 0.000000 0.000000 62.00000 0.000000 0.000000 
0.000000 6.839205 0.2924532 57.64202 -2.113237 -1.995835 34.78897 5.092006 24.12684 0.7359194 -13.10076 8.706205 -10.00000 -2.591471 17.91059 -19.00000 -7.361764 6.079780 -28.77753 11.72358 -1.000000 -35.42048 -7.511816 -26.55495 -88.02451 -1.079780 10.92022 66.17883 8.000000 11.72765 -10.00000 -8.429624 -2.134788 -27.56692 -51.89821 -51.50233 82.64362 2.323716 13.42308 -5.807426 -0.0009265359 -6.953235 15.75235 3.446819 -5.719133 28.94518 0.000000 0.000000 59.65286 0.000000 -3.000000 16.10567 1.777531 0.000000 29.14539 0.000000 0.000000 62.00000 0.000000 0.000000 
0.000000 5.766649 0.2387348 63.58560 -1.725073 -1.629236 28.95872 4.907084 22.97864 3.453618 -12.53058 8.305542 -10.00000 -3.872171 21.32579 -19.00000 -3.092764 6.613404 -28.63471 12.50908 -1.000000 -24.66979 1.629863 -36.45111 -89.11014 -1.613405 10.38660 59.34842 8.000000 12.58145 -10.00000 -8.759109 -2.085399 -27.75986 -55.00000 -51.87217 78.20013 2.688015 12.54876 -7.194852 -0.0009265359 -3.964935 13.04261 3.446819 -3.933905 24.04852 0.000000 0.000000 59.65286 0.000000 -3.000000 12.96367 1.634712 0.000000 29.00000 0.000000 0.000000 62.00000 0.000000 0.000000 
0.000000 4.755370 0.1880855 69.18961 -1.359086 -1.283582 27.85661 4.752419 22.01831 3.131890 -12.05369 7.970436 -10.00000 -5.276525 25.07073 -19.00000 1.588417 7.198552 -28.50005 13.24971 -1.000000 -14.56724 10.22041 -45.75064 -90.30060 -2.198552 9.801448 51.85853 8.000000 13.51768 -8.553795 -9.034682 -2.044091 -27.92123 -53.17321 -52.18150 73.32762 3.087488 11.59003 -8.716236 -0.0009265359 -0.6881078 10.48768 3.446819 -2.250669 19.04243 0.000000 0.000000 59.65286 0.000000 -3.000000 10.00118 1.500054 0.000000 27.89632 0.000000 0.000000 62.00000 0.000000 0.000000 
0.000000 3.827956 0.1416365 74.32887 -1.023451 -0.9665926 24.71805 4.311971 19.28352 2.215683 -10.69562 7.016130 -10.00000 -6.722923 28.92779 -19.00000 6.409743 7.801218 -28.37656 13.92891 -1.000000 -6.331271 17.22373 -53.33196 -91.52669 -2.801218 9.198782 44.14441 8.000000 14.48195 -4.435340 -9.819453 -1.926455 -28.38078 -47.97095 -53.06240 68.30923 3.498920 10.60259 -10.28317 -0.0009265359 2.686820 8.144636 3.446819 -0.7070243 14.14568 0.000000 0.000000 59.65286 0.000000 -3.000000 7.284363 1.376562 0.000000 24.75329 0.000000 0.000000 62.00000 0.000000 0.000000 
0.000000 3.005124 0.1004255 78.88860 -0.7256640 -0.6853493 20.02084 3.652788 15.19058 0.8444745 -8.663114 5.587902 -10.00000 -8.127310 32.67282 -19.00000 11.09103 8.386379 -28.26700 14.53152 -1.000000 -0.9552082 21.79519 -58.28070 -92.71717 -3.386379 8.613621 36.65435 8.000000 15.41821 1.728405 -10.99395 -1.750399 -29.06855 -40.18517 -54.38076 63.43660 3.898402 9.643834 -11.80459 -0.0009265359 5.963722 6.065807 3.446819 0.6625482 9.572265 0.000000 0.000000 59.65286 0.000000 -3.000000 4.873915 1.266996 0.000000 20.04938 0.000000 0.000000 62.00000 0.000000 0.000000 
0.000000 2.305253 0.06537283 82.76694 -0.4723773 -0.4461342 14.48003 2.875221 10.36258 -0.7729952 -6.265580 3.903172 -10.00000 -9.408072 36.08819 -19.00000 15.36024 8.920030 -28.17380 15.04408 -1.000000 0.9125559 23.38341 -60.00000 -93.80286 -3.920030 8.079970 29.82362 8.000000 16.27205 8.999120 -12.37939 -1.542725 -29.87983 -31.00111 -55.93590 58.99290 4.262719 8.769475 -13.19208 -0.0009265359 8.952168 4.297632 3.446819 1.827456 5.522060 0.000000 0.000000 59.65286 0.000000 -3.000000 2.823677 1.173803 0.000000 14.50067 0.000000 0.000000 62.00000 0.000000 0.000000 
0.000000 1.743976 0.03726162 85.87725 -0.2692486 -0.2542903 8.939123 2.097639 5.534489 -2.390495 -3.868002 2.218411 -10.00000 -10.49078 38.97541 -19.00000 18.96927 9.371159 -28.09907 15.45514 -1.000000 5.464952 20.83781 -60.00000 -94.72066 -4.371159 7.628841 24.04917 8.000000 16.99385 16.26997 -13.76484 -1.335046 -30.69113 -21.81688 -57.49106 55.23635 4.570698 8.030324 -14.36501 -0.0009265359 11.47849 2.879605 3.446819 2.761680 2.172066 0.000000 0.000000 59.65286 0.000000 -3.000000 1.179443 1.099066 0.000000 8.951866 0.000000 0.000000 62.00000 0.000000 0.000000 
0.000000 1.333831 0.01671973 88.15008 -0.1208150 -0.1141031 4.241618 1.438415 1.441300 -3.761789 -1.835369 0.7900943 -10.00000 -11.31252 41.16671 -19.00000 21.70839 9.713549 -28.04445 15.75551 -1.000000 16.45556 14.69211 -60.00000 -95.41723 -4.713549 7.286451 19.66657 8.000000 17.54168 22.43410 -14.93942 -1.158980 -31.37894 -14.03062 -58.80951 52.38527 4.804444 7.469335 -15.25523 -0.0009265359 13.39587 1.843401 3.446819 3.444351 -0.3313151 0.000000 0.000000 59.65286 0.000000 -3.000000 -0.02205805 1.044452 0.000000 4.247664 0.000000 0.000000 62.00000 0.000000 0.000000 
